<?xml version="1.0" encoding="UTF-8"?> <svg xmlns="http://www.w3.org/2000/svg" xmlns:xlink="http://www.w3.org/1999/xlink" version="1.2" id="Layer_1" x="0px" y="0px" width="64px" height="64px" viewBox="0 0 64 64" overflow="visible" xml:space="preserve"> <g id="qMjtxO.tif_00000086675904060314976120000008912421524456254397_"> <g> <path fill="#BDC2D4" d="M36.3,64c-0.1-0.1-0.2-0.2-0.3-0.3c-0.5-0.5-0.6-1.2-0.1-1.7c0.5-0.5,1.3-0.5,1.7,0 c0.5,0.5,0.4,1.2-0.1,1.7c-0.1,0.1-0.2,0.2-0.3,0.3C36.9,64,36.6,64,36.3,64z"></path> <path fill="#BDC2D4" d="M47,13.6c0.8-0.7,1.6-1.4,2.4-2.1c3.7-2.9,8-4.3,12.7-4.3c1.2,0,1.6,0.4,1.6,1.6c0,5.7-2,10.6-6,14.7 c-0.2,0.2-0.4,0.5-0.7,0.7c-1.2,0.8-1.4,1.8-0.9,3.1c0.6,1.6,0.9,3.4,1.4,5.1c0.2,0.8,0.1,1.4-0.5,2c-1,0.9-1.9,1.8-2.8,2.8 c-0.9,0.9-1.4,0.9-2.3,0c-0.2-0.2-0.3-0.4-0.6-0.8c-0.2,0.4-0.3,0.6-0.3,0.8c-3.7,10-13.2,16.4-23.9,15.9c-2.8-0.1-5.4-0.7-8-1.8 c-0.7-0.3-1.2-0.2-1.8,0.1c-2.6,1.5-5.4,2.9-8.4,3.4c-1.1,0.2-2.3,0.2-3.4,0c-2.5-0.5-3.7-2.8-3.4-5.6c0.4-3,1.5-5.7,3-8.2 c0.8-1.4,0.9-2.5,0.3-4C0.5,23.3,9.3,7.9,23.7,5.3c9-1.6,16.7,1.1,22.9,7.9C46.7,13.3,46.8,13.5,47,13.6z M37.7,26.5 c-1.4-1.8-1.4-1.8,0-3.5c-1.3-1.3-2.7-2.7-4.1-4c-0.7-0.7-0.7-1.4,0-2.1c1-1,2-2,3-3c0.5-0.5,1-0.6,1.6-0.4c2,0.6,4,1.1,6,1.6 c0.2,0,0.3,0,0.7,0.1c-0.4-0.4-0.6-0.7-0.9-1C38.5,8.5,31.8,6.2,24,7.7C15,9.4,8.2,16.7,6.7,26c-1.3,8.6,3.2,17.7,10.9,21.9 c0.4,0.2,0.7,0.2,1.1-0.1C24,44.3,29,40.3,33.5,35.7c0.3-0.3,0.4-0.7,0.5-1.1c0.2-0.8,0.3-1.7,0.5-2.5 C35,29.9,36.2,28.1,37.7,26.5z M20.9,49.3c0.1,0.1,0.1,0.1,0.2,0.1c0.2,0.1,0.3,0.1,0.5,0.2c6.9,2.1,13.4,1.2,19.4-2.9 c4.1-2.8,6.7-6.7,8.2-11.4c0.1-0.3,0.1-0.7,0-0.9c-0.3-0.4-0.6-0.8-1-1.1c-1.8,1.4-1.8,1.4-3.6,0c-0.2,0.1-0.3,0.3-0.5,0.4 c-2.2,1.9-4.7,2.9-7.6,3.2c-0.6,0.1-1,0.3-1.4,0.6c-3.5,3.5-7.3,6.7-11.2,9.6C22.8,47.9,21.9,48.6,20.9,49.3z M39.5,24.6 c2.3,2.3,4.6,4.5,6.8,6.8c0.1-0.1,0.2-0.2,0.3-0.3c3.2-3.2,6.3-6.3,9.5-9.5c2.5-2.5,4-5.5,4.8-8.9c0.2-1,0.3-2,0.4-3.1 c-4.1,0.2-7.5,1.5-10.6,3.9c-0.9,0.7-1.7,1.5-2.4,2.2C45.3,18.8,42.4,21.7,39.5,24.6z M15.8,49.6c-3.4-2.1-6-4.7-8.1-8.2 c-0.7,1.6-1.5,3-2,4.4c-0.5,1.4-0.9,2.8-1,4.3c-0.1,1.7,0.7,2.4,2.4,2.5c0.3,0,0.6,0,0.8,0C10.7,52.2,13.2,51,15.8,49.6z M42.7,31.7c-1.1-1.2-2.3-2.3-3.4-3.4c-1.6,1.7-2.6,3.8-2.8,6.3C38.9,34.2,41,33.2,42.7,31.7z M43.3,17.2 c-1.6-0.4-3.2-0.9-4.8-1.3c-0.2-0.1-0.5,0-0.7,0.1c-0.6,0.5-1.3,1.1-1.8,1.6c1.2,1.2,2.3,2.3,3.4,3.4 C40.7,19.9,41.9,18.6,43.3,17.2z M53.1,34.9C53.1,34.8,53.2,34.8,53.1,34.9c0.7-0.7,1.6-1.2,1.9-2c0.2-0.7-0.3-1.6-0.5-2.4 c-0.2-0.9-0.5-1.9-0.7-2.7c-1.3,1.3-2.6,2.6-3.9,3.9C50.9,32.6,52,33.7,53.1,34.9z"></path> <path fill="#BDC2D4" d="M3.9,11.8c-2,0-3.6-1.7-3.6-3.7c0-2,1.7-3.6,3.6-3.6c2,0,3.6,1.6,3.6,3.6C7.6,10.2,5.9,11.8,3.9,11.8z M3.9,7C3.3,7,2.8,7.6,2.8,8.2c0,0.7,0.5,1.2,1.2,1.2c0.7,0,1.2-0.6,1.2-1.2C5.1,7.5,4.6,7,3.9,7z"></path> <path fill="#BDC2D4" d="M48.8,1.2c0,0.7-0.6,1.2-1.2,1.2c-0.7,0-1.2-0.6-1.2-1.2C46.4,0.5,47,0,47.6,0C48.3,0,48.8,0.6,48.8,1.2z"></path> <path fill="#BDC2D4" d="M58.5,47.7c0.7,0,1.2,0.5,1.2,1.2c0,0.7-0.5,1.2-1.2,1.2c-0.7,0-1.2-0.5-1.2-1.2 C57.3,48.3,57.8,47.7,58.5,47.7z"></path> <path fill="#BDC2D4" d="M50.3,17c0-2,1.6-3.6,3.6-3.6c2,0,3.6,1.6,3.6,3.6c0,2-1.7,3.7-3.6,3.7C51.9,20.6,50.3,19,50.3,17z M54,15.8c-0.7,0-1.2,0.5-1.2,1.2c0,0.7,0.5,1.2,1.2,1.2c0.6,0,1.2-0.5,1.2-1.2C55.2,16.4,54.6,15.9,54,15.8z"></path> </g> </g> </svg> 