<?xml version="1.0" encoding="UTF-8"?> <svg xmlns="http://www.w3.org/2000/svg" xmlns:xlink="http://www.w3.org/1999/xlink" version="1.2" id="Layer_1" x="0px" y="0px" width="64px" height="64px" viewBox="0 0 64 64" overflow="visible" xml:space="preserve"> <g id="_x30_Hyckm.tif_00000037671535888764448940000009785541479677704612_"> <g> <path fill="#BDC2D4" d="M31.6,2c0.2,0,0.5,0,0.7,0c0.1,0.1,0.2,0.2,0.4,0.3c8.5,4.7,17,9.4,25.5,14.2c0.3,0.2,0.6,0.5,1,0.7 c0,0.2,0,0.5,0,0.7c-0.3,0.2-0.6,0.5-1,0.7c-3.5,2-7,3.9-10.5,5.9c-0.2,0.1-0.3,0.2-0.6,0.4c0.3,0.2,0.5,0.3,0.6,0.4 c3.5,1.9,7,3.9,10.5,5.8c0.3,0.2,0.6,0.5,1,0.7c0,0.2,0,0.5,0,0.7c-0.3,0.2-0.6,0.5-1,0.7c-2.4,1.3-4.8,2.6-7.2,4 c-1.3,0.7-2.6,1.4-4,2.2c0.2,0.1,0.4,0.3,0.6,0.3c3.5,2,7.1,3.9,10.6,5.9c0.3,0.2,0.6,0.5,1,0.7c0,0.2,0,0.5,0,0.7 c-0.3,0.2-0.5,0.5-0.8,0.6c-8.5,4.7-17.1,9.5-25.6,14.2c-0.6,0.3-1,0.3-1.6,0C22.7,57,14.1,52.3,5.6,47.6c-0.4-0.2-0.8-0.5-0.8-1 c0-0.5,0.4-0.8,0.8-1c2.8-1.5,5.6-3.1,8.4-4.7c0.9-0.5,1.9-1.1,2.9-1.6c-0.3-0.2-0.4-0.3-0.6-0.4c-3.6-2-7.1-4-10.7-5.9 c-0.4-0.2-0.8-0.5-0.8-1c0-0.5,0.4-0.8,0.8-1c3.6-2,7.1-4,10.7-5.9c0.2-0.1,0.4-0.2,0.6-0.4c-0.2-0.1-0.4-0.3-0.6-0.4 c-3.6-2-7.2-4-10.8-6c-0.4-0.2-0.8-0.5-0.7-1c0.1-0.3,0.4-0.6,0.7-0.9c0.1-0.1,0.2-0.1,0.3-0.2c7.3-4,14.5-8,21.8-12.1 C29,3.6,30.3,2.8,31.6,2z M56.3,32.1c-0.1-0.1-0.2-0.1-0.2-0.2c-3.5-2-7.1-3.9-10.6-5.9c-0.3-0.2-0.5-0.1-0.8,0.1 c-3.9,2.2-7.8,4.3-11.7,6.5c-0.7,0.4-1.3,0.4-1.9,0c-3.9-2.2-7.8-4.3-11.7-6.5c-0.3-0.2-0.6-0.2-1,0c-2.3,1.3-4.6,2.6-6.9,3.8 C10.2,30.6,9,31.3,7.7,32c0.2,0.1,0.3,0.2,0.5,0.3c7.8,4.3,15.6,8.6,23.4,13c0.4,0.2,0.6,0.1,1,0c5.5-3.1,11.1-6.1,16.6-9.2 C51.5,34.7,53.9,33.4,56.3,32.1z M27.4,57.5c1.5,0.8,2.8,1.5,4.2,2.3c0.4,0.2,0.6,0.2,1,0c7.8-4.3,15.6-8.6,23.3-12.9 c0.1-0.1,0.3-0.2,0.5-0.3c-1.4-0.8-2.7-1.5-4.1-2.3c-0.4-0.2-0.7-0.2-1.1,0c-7.3,4-14.6,8.1-21.9,12.1 C28.7,56.7,28.1,57.1,27.4,57.5z M20.9,53.8c0.2,0.1,0.3,0.2,0.5,0.3c1.2,0.7,2.4,1.3,3.6,2c0.3,0.2,0.6,0.2,0.9,0 c7.2-4,14.4-8,21.7-12c0.7-0.4,1.4-0.8,2.2-1.2c-1.4-0.8-2.8-1.5-4.1-2.3c-0.4-0.2-0.6-0.2-1,0c-7.7,4.3-15.5,8.6-23.2,12.9 C21.2,53.6,21.1,53.7,20.9,53.8z M23.4,42.9c-0.2-0.1-0.4-0.2-0.5-0.3c-1.2-0.7-2.4-1.3-3.6-2c-0.3-0.2-0.6-0.2-0.9,0 c-3.4,1.9-6.8,3.8-10.2,5.6c-0.2,0.1-0.3,0.2-0.5,0.3c1.4,0.8,2.7,1.5,4.1,2.3c0.4,0.2,0.7,0.2,1.1,0c3.3-1.9,6.7-3.7,10-5.6 C23,43.2,23.2,43.1,23.4,42.9z M14.3,50.2c0.2,0.1,0.4,0.2,0.5,0.3c1.2,0.7,2.4,1.3,3.6,2c0.3,0.2,0.6,0.2,0.9,0 c3.4-1.9,6.8-3.8,10.2-5.6c0.2-0.1,0.3-0.2,0.5-0.3c-1.4-0.8-2.8-1.5-4.1-2.3c-0.3-0.2-0.6-0.2-1,0c-2.3,1.3-4.6,2.5-6.9,3.8 C16.8,48.8,15.6,49.5,14.3,50.2z M56.3,17.5c-1.5-0.8-2.9-1.6-4.4-2.4c-0.1-0.1-0.4-0.1-0.6,0c-0.6,0.3-1.3,0.7-1.9,1 c-0.8,0.4-1.6,0.9-2.4,1.3c1.5,0.9,3,1.7,4.4,2.5c0.1,0.1,0.3,0.1,0.4,0C53.3,19.1,54.8,18.3,56.3,17.5z M27.4,6.6 c1.5,0.8,2.9,1.6,4.2,2.4c0.3,0.2,0.5,0.2,0.8,0c1.3-0.7,2.5-1.4,3.8-2.1c0.1-0.1,0.2-0.2,0.4-0.3c-1.5-0.8-2.9-1.6-4.3-2.4 c-0.1-0.1-0.4-0.1-0.5,0C30.3,4.9,28.9,5.7,27.4,6.6z M36.6,28.4c-1.1-0.6-2.2-1.1-3.2-1.8c-1-0.7-1.9-0.8-2.9,0 c-1,0.7-2,1.2-3.2,1.8c1.6,0.9,3,1.7,4.5,2.5c0.1,0.1,0.3,0,0.4,0C33.7,30,35.1,29.2,36.6,28.4z M33.9,10.2c1.5,0.9,3,1.7,4.4,2.4 c0.1,0.1,0.4,0,0.6-0.1c1.3-0.7,2.6-1.4,3.9-2.1c0.1-0.1,0.2-0.2,0.3-0.3c-1.5-0.8-2.9-1.6-4.3-2.4c-0.1-0.1-0.4-0.1-0.5,0 C36.9,8.6,35.5,9.4,33.9,10.2z M49.8,13.8c-1.5-0.8-3-1.6-4.4-2.4c-0.1-0.1-0.4,0-0.6,0.1c-1.3,0.7-2.6,1.4-3.9,2.1 c-0.1,0.1-0.2,0.2-0.3,0.3c1.5,0.8,2.9,1.6,4.3,2.4c0.1,0.1,0.4,0.1,0.5,0C46.8,15.5,48.2,14.7,49.8,13.8z M16.9,17.5 c-1.5-0.9-3-1.7-4.4-2.4c-0.1-0.1-0.4,0-0.6,0.1c-1,0.6-2.1,1.1-3.1,1.7c-0.3,0.2-0.7,0.4-1.1,0.6c1.2,0.6,2.3,1.2,3.3,1.8 c1,0.7,1.7,0.7,2.7,0C14.6,18.6,15.8,18.1,16.9,17.5z M33.9,24.8c1.6,0.9,3,1.7,4.4,2.5c0.1,0.1,0.4,0,0.5-0.1 c1.3-0.7,2.6-1.4,3.9-2.2c0.1,0,0.2-0.1,0.3-0.2c-1.5-0.8-2.9-1.6-4.3-2.4c-0.1-0.1-0.4-0.1-0.5,0C36.9,23.1,35.5,23.9,33.9,24.8z M40.5,21.1c1.2,0.7,2.4,1.2,3.4,1.9c0.9,0.6,1.6,0.6,2.5,0c1-0.7,2.2-1.2,3.4-1.9c-1.6-0.9-3-1.7-4.5-2.5c-0.1-0.1-0.3,0-0.4,0 C43.5,19.5,42,20.3,40.5,21.1z M30.1,24.8c-1.5-0.8-3-1.6-4.4-2.4c-0.1-0.1-0.4,0-0.6,0.1c-1.3,0.7-2.6,1.4-3.9,2.2 c-0.1,0-0.2,0.1-0.3,0.2c1.5,0.8,2.9,1.6,4.3,2.4c0.1,0.1,0.4,0.1,0.5,0C27.1,26.4,28.5,25.6,30.1,24.8z M23.5,13.9 c-1.5-0.9-3-1.6-4.4-2.4c-0.1-0.1-0.3-0.1-0.4,0c-1.4,0.8-2.9,1.6-4.4,2.4c1.6,0.9,3,1.7,4.5,2.5c0.1,0.1,0.3,0,0.4,0 C20.5,15.5,21.9,14.7,23.5,13.9z M20.8,10.2c1.5,0.9,3,1.7,4.4,2.4c0.1,0.1,0.4,0,0.5-0.1c1.3-0.7,2.6-1.4,3.9-2.2 c0.1,0,0.2-0.1,0.3-0.2c-1.5-0.8-2.9-1.6-4.3-2.4c-0.1-0.1-0.4-0.1-0.5,0C23.7,8.6,22.3,9.4,20.8,10.2z M27.4,13.8 c1.5,0.8,2.9,1.6,4.2,2.3c0.3,0.2,0.6,0.2,0.9,0c1.2-0.7,2.5-1.4,3.7-2.1c0.1-0.1,0.2-0.2,0.4-0.3c-1.5-0.8-2.9-1.6-4.3-2.4 c-0.1-0.1-0.4-0.1-0.5,0C30.3,12.2,28.9,13,27.4,13.8z M14.2,21.1c1.5,0.9,2.9,1.6,4.4,2.4c0.2,0.1,0.4,0,0.6-0.1 c0.9-0.4,1.7-0.9,2.6-1.4c0.5-0.3,1.1-0.6,1.7-0.9c-1.5-0.8-3-1.6-4.4-2.4c-0.1-0.1-0.3-0.1-0.4,0C17.2,19.5,15.8,20.3,14.2,21.1z M27.4,21.1c0.1,0.1,0.2,0.1,0.2,0.2c1.3,0.7,2.7,1.5,4.1,2.2c0.2,0.1,0.5,0.1,0.6,0c1.3-0.7,2.6-1.4,4-2.2c0.1,0,0.2-0.1,0.3-0.2 c-1.3-0.7-2.5-1.3-3.7-2.1c-0.6-0.4-1.1-0.4-1.7,0C29.9,19.7,28.7,20.4,27.4,21.1z M20.8,17.5c1,0.6,2,1,2.9,1.6 c1.2,0.9,2.3,0.9,3.5,0c0.9-0.6,1.8-1.1,2.9-1.6c-1.5-0.9-3-1.7-4.4-2.4c-0.1-0.1-0.3,0-0.4,0C23.8,15.8,22.3,16.6,20.8,17.5z M43.2,17.5c-1.1-0.6-2.1-1.1-3-1.7C39,15,38.1,15,37,15.8c-0.9,0.7-1.9,1.1-3,1.7c1.5,0.9,3,1.7,4.4,2.5c0.1,0.1,0.3,0,0.4,0 C40.2,19.1,41.6,18.3,43.2,17.5z"></path> </g> </g> </svg> 