<svg width="184" height="64" viewBox="0 0 184 64" fill="none" xmlns="http://www.w3.org/2000/svg">
<rect y="0.275391" width="183.438" height="63.3696" rx="13.341" fill="#F5F5F5"/>
<path d="M96.5331 28.0903C96.0351 27.1772 95.3502 26.482 94.4786 26.0047C93.607 25.5274 92.5901 25.2887 91.428 25.2887C90.1413 25.2887 88.9999 25.5793 88.0038 26.1603C87.0077 26.7414 86.2295 27.5715 85.6691 28.6506C85.1088 29.7298 84.8287 30.9749 84.8287 32.3861C84.8287 33.8388 85.1088 35.1047 85.6691 36.1839C86.2502 37.263 87.0492 38.0931 88.0661 38.6742C89.0829 39.2552 90.2658 39.5458 91.6148 39.5458C93.275 39.5458 94.6343 39.11 95.6927 38.2384C96.751 37.346 97.4463 36.1112 97.7783 34.534H90.3073V31.2032H102.074V35.001C101.784 36.5159 101.161 37.9167 100.206 39.2034C99.2517 40.49 98.0169 41.5277 96.502 42.3163C95.0078 43.0841 93.3269 43.468 91.4591 43.468C89.3631 43.468 87.4642 43.0011 85.7625 42.0672C84.0816 41.1126 82.7534 39.7948 81.778 38.1138C80.8234 36.4329 80.3461 34.5236 80.3461 32.3861C80.3461 30.2486 80.8234 28.3394 81.778 26.6584C82.7534 24.9567 84.0816 23.6389 85.7625 22.705C87.4642 21.7504 89.3527 21.2731 91.428 21.2731C93.8768 21.2731 96.0039 21.8749 97.8094 23.0786C99.6149 24.2615 100.86 25.9321 101.545 28.0903H96.5331Z" fill="#323142"/>
</svg>
