<?xml version="1.0" encoding="UTF-8"?> <svg xmlns="http://www.w3.org/2000/svg" xmlns:xlink="http://www.w3.org/1999/xlink" version="1.2" id="Layer_1" x="0px" y="0px" width="64px" height="64px" viewBox="0 0 64 64" overflow="visible" xml:space="preserve"> <g id="n82ijB.tif_00000119800868877659401210000006689832963630975618_"> <g> <path fill="#BDC2D4" d="M0,37.6c0.4-0.4,0.7-0.7,1.1-1.1C13,24.5,25,12.6,36.9,0.7c0.5-0.5,1.1-0.7,1.8-0.6 c7.4,1.5,14.7,3,22.1,4.4c0.8,0.2,1.5,0.3,2.3,0.5C63.7,5.1,64,5.5,64,6.2c0,1.8,0,3.7,0,5.5c0,0.5-0.2,0.9-0.5,1.3 c-1.5,1.5-3,3-4.5,4.5c-0.2,0.2-0.3,0.3-0.6,0.6c1,0.2,1.9,0.4,2.8,0.6c0.6,0.1,1.2,0.2,1.8,0.4c0.7,0.2,1,0.5,1,1.2 c0,1.9,0,3.8,0,5.7c0,0.4-0.3,0.8-0.5,1.1c-2.9,2.9-5.8,5.8-8.7,8.8C45.6,44.8,36.5,53.9,27.4,63c-0.3,0.3-0.7,0.7-1,1 c-0.2,0-0.5,0-0.7,0c-0.1,0-0.2-0.1-0.3-0.1c-8-1.6-15.9-3.2-23.9-4.8c-0.5-0.1-1-0.2-1.4-0.7c0-2.2,0-4.5,0-6.7 c1.8-1.9,3.7-3.7,5.6-5.7c-1.6-0.3-3-0.6-4.4-0.9c-0.4-0.1-0.8-0.4-1.2-0.7C0,42.1,0,39.8,0,37.6z M44.3,3.3 c-0.8-0.2-1.5-0.3-2.2-0.4c-0.4-0.1-0.6,0-0.8,0.3c-1.6,1.7-3.3,3.3-4.9,5c-8.7,8.7-16.3,18.4-22.6,29.1c-0.4,0.7-0.8,1.4-1.2,2.2 c3.2,0.6,6.4,1.3,9.6,1.9c0.1-0.2,0.1-0.3,0.1-0.5c1.1-4.9,2.8-9.7,4.9-14.3c3.5-7.5,8.3-14.1,14.1-20C42.3,5.4,43.3,4.4,44.3,3.3 z M24.1,41.5c1.4,0.5,1.4,0.5,2.4-0.5c2.1-2.1,4.1-4.2,6.2-6.2c1-0.9,1.4-1.9,1.5-3.2c1-7.8,4.2-14.7,9.6-20.4 c2-2.2,4.3-4.1,6.4-6.2c0.2-0.1,0.3-0.3,0.5-0.5c-1.3-0.3-2.5-0.5-3.7-0.8c-0.4-0.1-0.6,0-0.8,0.3c-1.7,1.8-3.4,3.5-5,5.3 c-5.3,5.6-9.6,11.8-12.7,18.8C26.6,32.5,25.1,36.9,24.1,41.5z M60.8,6.6c-0.1,0-0.2-0.1-0.3-0.1C58.2,6,56,5.6,53.7,5.2 c-0.2,0-0.6,0.1-0.8,0.3c-2,1.9-4,3.8-6.1,5.7c-5,4.7-8.3,10.4-9.9,17.1c-0.2,0.9-0.4,1.9-0.6,2.9C44.5,22.9,52.7,14.7,60.8,6.6z M3,37.1c0.1,0.1,0.1,0.2,0.2,0.2c1.2,0.2,2.4,0.5,3.7,0.7c1.2,0.2,2.4,0.5,3.7,0.7c7.7-13.7,17.4-25.8,28.8-36.5 c-0.7-0.4-1.1-0.2-1.5,0.2C26.4,14,15,25.4,3.6,36.8C3.4,37,3.2,37,3,37.1z M62,8.6c-0.1,0-0.1-0.1-0.2-0.1 c-0.1,0.2-0.3,0.4-0.4,0.5c-3,3-6.1,6.1-9.1,9.1C44,26.4,35.7,34.6,27.5,42.9c-0.2,0.2-0.4,0.4-0.4,0.6c0,0.9,0,1.9,0,3 c0.3-0.2,0.4-0.4,0.6-0.5c5.6-5.6,11.1-11.1,16.7-16.7C50,23.5,55.8,17.8,61.5,12c0.2-0.2,0.4-0.4,0.4-0.6C62,10.4,62,9.5,62,8.6z M27,60.4c0.1,0,0.1,0.1,0.2,0.1c0.1-0.2,0.3-0.4,0.4-0.5c3.4-3.4,6.9-6.9,10.3-10.3c7.9-7.9,15.8-15.8,23.6-23.6 c0.2-0.2,0.4-0.4,0.4-0.6c0-0.9,0-1.9,0-3c-0.3,0.2-0.4,0.4-0.6,0.6C56.2,28.2,51,33.4,45.8,38.6c-6.1,6.1-12.2,12.2-18.3,18.3 c-0.2,0.2-0.4,0.4-0.4,0.6C27,58.5,27,59.5,27,60.4z M23.2,55.4c0.7,0.1,1.3,0.2,1.8,0.4c0.5,0.1,0.7,0,1-0.3 c5.1-5.1,10.2-10.2,15.3-15.3c0.4-0.4,0.7-0.8,0.7-1.4c0-0.6,0.2-1.1,0.3-1.7c0.3-1.4,0.7-2.7,1.1-4.1c-0.2,0.1-0.3,0.3-0.5,0.5 C37.8,38.6,32.6,43.8,27.3,49c-0.4,0.4-0.8,1-1.5,1c-0.1,0-0.2,0.2-0.2,0.3C24.6,51.8,23.8,53.5,23.2,55.4z M25,47.7 c0-1.1,0-2,0-3c0-1,0-0.9-1-1.1c-6.2-1.2-12.3-2.5-18.5-3.7c-1.2-0.2-2.3-0.5-3.6-0.7c0,1.3,0,2.5,0,3.6c0,0.1,0.3,0.4,0.5,0.4 c5.2,1.1,10.3,2.1,15.5,3.1C20.3,46.8,22.6,47.3,25,47.7z M2,53.2c0,1.2,0,2.3,0,3.4c0,0.4,0.1,0.6,0.5,0.6 c5.4,1.1,10.8,2.1,16.1,3.2c2.1,0.4,4.2,0.8,6.3,1.3c0-1.2,0-2.3,0-3.4c0-0.4-0.1-0.6-0.6-0.7c-5.8-1.1-11.5-2.3-17.3-3.4 C5.4,53.9,3.8,53.5,2,53.2z M60.8,20.6c-1.1-0.2-2.3-0.4-3.4-0.7c-0.5-0.1-0.9,0-1.2,0.4c-1.9,2-3.9,3.8-5.8,5.9 c-1.2,1.3-2.2,2.6-3.2,4.1c-1.3,2-2.1,4.3-2.6,6.7C50,31.4,55.4,26,60.8,20.6z M12.2,53.2c3.1,0.6,6.1,1.2,9,1.8 c0.8-1.9,1.6-3.7,2.4-5.5c-3-0.6-5.9-1.2-8.9-1.8c-0.3-0.1-0.5,0-0.6,0.3C13.5,49.7,12.8,51.4,12.2,53.2z M10.2,52.8 c0.7-1.9,1.3-3.7,2-5.6c-1.3-0.3-2.6-0.5-3.9-0.8c-0.2,0-0.4,0.1-0.6,0.3c-1.4,1.4-2.9,2.8-4.3,4.3c-0.1,0.1-0.2,0.2-0.3,0.4 C5.5,51.9,7.9,52.3,10.2,52.8z"></path> </g> </g> </svg> 