<?xml version="1.0" encoding="UTF-8"?> <svg xmlns="http://www.w3.org/2000/svg" xmlns:xlink="http://www.w3.org/1999/xlink" version="1.2" id="Layer_1" x="0px" y="0px" width="64px" height="64px" viewBox="0 0 64 64" overflow="visible" xml:space="preserve"> <g id="Qjckg8.tif_00000169528658934345794730000010072923232105629348_"> <g> <path fill="#BDC2D4" d="M62,55.2c-0.3,0.8-0.5,1.7-0.9,2.5c-1.6,3.3-5.4,5-8.9,4.1c-3.5-0.9-6-4.3-5.8-7.9 c0.1-1.3,0.4-2.1,1.5-4.2c-1.2-1.2-2.5-2.5-3.8-3.8c-1.1-1.1-2.2-2.2-3.3-3.3c-0.7-0.7-0.7-1.3-0.2-1.8c0.5-0.5,1.1-0.4,1.8,0.3 c2.4,2.4,4.7,4.7,6.9,7c1.3-0.5,2.4-1,3.6-1.3c4.1-0.7,8.1,2.1,8.9,6.2c0,0.2,0.1,0.3,0.1,0.4C62,53.9,62,54.6,62,55.2z M54.2,59.8c3,0,5.5-2.6,5.5-5.5c0-3-2.6-5.6-5.6-5.6c-3,0-5.6,2.6-5.5,5.6C48.7,57.3,51.3,59.8,54.2,59.8z"></path> <path fill="#BDC2D4" d="M49.8,2C50.9,2.4,52,2.7,53,3.3c3,1.8,4.2,5.5,3.2,8.7c-1.1,3.3-4.3,5.7-7.7,5.5c-1.1-0.1-2.3-0.5-3.6-0.8 c-0.6,0.7-1.3,1.7-2,2.6c-0.7,0.9-1.3,1.7-2,2.6c-0.5,0.6-1.1,0.7-1.6,0.3c-0.5-0.4-0.6-1-0.1-1.7c1.3-1.8,2.7-3.5,4-5.2 c-0.6-0.9-1.2-1.8-1.6-2.7c-1.8-4.5,1-9.6,5.8-10.5c0.2,0,0.3-0.1,0.4-0.1C48.5,2,49.1,2,49.8,2z M54.4,9.8c0-3-2.5-5.6-5.5-5.6 c-3,0-5.5,2.5-5.6,5.5c0,3,2.5,5.6,5.6,5.6C51.8,15.3,54.3,12.8,54.4,9.8z"></path> <path fill="#BDC2D4" d="M42,32c0,5.4-4.6,10-10,10c-5.4,0-10-4.6-10-10c0-5.4,4.6-10,10-10C37.4,22,42,26.6,42,32z M24.2,32 c0,4.2,3.6,7.8,7.8,7.8c4.2,0,7.7-3.6,7.8-7.7c0-4.2-3.5-7.8-7.8-7.8C27.8,24.2,24.2,27.8,24.2,32z"></path> <path fill="#BDC2D4" d="M16.7,20.8c-3.7,2.8-7.4,1.5-9.3-0.7c-2.2-2.5-2.3-6-0.2-8.6C9.2,9,12.8,8.4,15.6,10 c3.1,1.8,4.1,5.1,2.5,9.1c1.4,1.1,2.7,2.2,4.1,3.4c0.3,0.2,0.6,0.6,0.6,0.9c0,0.3-0.2,0.8-0.5,1c-0.4,0.4-0.9,0.2-1.3-0.1 c-1.3-1.1-2.6-2.2-4-3.3C16.9,21,16.8,20.9,16.7,20.8z M16.7,15.8c0-2.4-2-4.4-4.4-4.4c-2.4,0-4.5,2-4.5,4.4c0,2.4,2,4.4,4.4,4.4 C14.7,20.2,16.7,18.2,16.7,15.8z"></path> <path fill="#BDC2D4" d="M12.9,44c0.6,2.1,0.2,3.9-1.3,5.4c-2.1,2.3-5.5,2.4-7.8,0.3c-2.3-2.1-2.4-5.5-0.4-7.8 c2.1-2.3,5.5-2.5,7.8-0.3c0.4,0.4,0.6,0.3,1.1,0.1c2.4-1.4,4.9-2.7,7.3-4.1c0.5-0.3,1-0.4,1.3,0c0.3,0.3,0.5,0.8,0.4,1.1 c-0.1,0.4-0.5,0.7-0.8,0.9C18,41.1,15.5,42.5,12.9,44z M10.9,45.7c0-1.8-1.5-3.3-3.3-3.3c-1.8,0-3.3,1.5-3.3,3.3 c0,1.8,1.6,3.4,3.4,3.4C9.4,49,10.9,47.5,10.9,45.7z"></path> <path fill="#BDC2D4" d="M31.4,26.5c0.6,0,1.1,0.4,1.1,1c0.1,0.6-0.3,1.1-1,1.2c-1.5,0.3-2.5,1.2-2.9,2.7c-0.1,0.2,0,0.5-0.1,0.7 c-0.1,0.6-0.6,1.1-1.2,1c-0.6,0-1-0.5-1-1.1C26.2,29.4,28.9,26.5,31.4,26.5z"></path> </g> </g> </svg> 